<mxfile host="app.diagrams.net" modified="2023-10-03T01:02:59.417Z" agent="Mozilla/5.0 (Windows NT 10.0; Win64; x64; rv:109.0) Gecko/20100101 Firefox/118.0" etag="aunRYCxs8qk6V30fKZ4B" version="21.8.2" type="device">
  <diagram name="Page-1" id="5koIuVJso9G2URFW1GZJ">
    <mxGraphModel dx="1434" dy="782" grid="1" gridSize="10" guides="1" tooltips="1" connect="1" arrows="1" fold="1" page="1" pageScale="1" pageWidth="850" pageHeight="1100" math="0" shadow="0">
      <root>
        <mxCell id="0" />
        <mxCell id="1" parent="0" />
        <mxCell id="ZHIOyNTAwJOBdiGEuepb-1" value="" style="rounded=0;whiteSpace=wrap;html=1;" vertex="1" parent="1">
          <mxGeometry x="30" y="70" width="1100" height="660" as="geometry" />
        </mxCell>
        <mxCell id="ZHIOyNTAwJOBdiGEuepb-2" value="" style="rounded=0;whiteSpace=wrap;html=1;" vertex="1" parent="1">
          <mxGeometry x="30" y="70" width="70" height="660" as="geometry" />
        </mxCell>
        <mxCell id="ZHIOyNTAwJOBdiGEuepb-3" value="&lt;font style=&quot;font-size: 36px;&quot; face=&quot;Gugi&quot;&gt;Q&lt;/font&gt;" style="rounded=1;whiteSpace=wrap;html=1;" vertex="1" parent="1">
          <mxGeometry x="40" y="90" width="50" height="50" as="geometry" />
        </mxCell>
        <mxCell id="ZHIOyNTAwJOBdiGEuepb-5" value="&lt;font style=&quot;font-size: 37px;&quot;&gt;+&lt;/font&gt;" style="rounded=1;whiteSpace=wrap;html=1;" vertex="1" parent="1">
          <mxGeometry x="40" y="230" width="50" height="50" as="geometry" />
        </mxCell>
        <mxCell id="ZHIOyNTAwJOBdiGEuepb-19" value="" style="rounded=0;whiteSpace=wrap;html=1;" vertex="1" parent="1">
          <mxGeometry x="100" y="70" width="1030" height="60" as="geometry" />
        </mxCell>
        <mxCell id="ZHIOyNTAwJOBdiGEuepb-21" value="" style="group" vertex="1" connectable="0" parent="1">
          <mxGeometry x="30" y="160" width="70" height="60" as="geometry" />
        </mxCell>
        <mxCell id="ZHIOyNTAwJOBdiGEuepb-20" value="" style="rounded=0;whiteSpace=wrap;html=1;fillColor=#dae8fc;strokeColor=#6c8ebf;movable=1;resizable=1;rotatable=1;deletable=1;editable=1;locked=0;connectable=1;" vertex="1" parent="ZHIOyNTAwJOBdiGEuepb-21">
          <mxGeometry width="70" height="60" as="geometry" />
        </mxCell>
        <mxCell id="ZHIOyNTAwJOBdiGEuepb-4" value="&lt;font style=&quot;font-size: 21px;&quot;&gt;AN&lt;/font&gt;" style="rounded=1;whiteSpace=wrap;html=1;movable=1;resizable=1;rotatable=1;deletable=1;editable=1;locked=0;connectable=1;" vertex="1" parent="ZHIOyNTAwJOBdiGEuepb-21">
          <mxGeometry x="10" y="5" width="50" height="50" as="geometry" />
        </mxCell>
        <mxCell id="ZHIOyNTAwJOBdiGEuepb-22" value="&lt;font data-font-src=&quot;https://fonts.googleapis.com/css?family=Gugi&quot; face=&quot;Gugi&quot; style=&quot;font-size: 20px;&quot;&gt;Anime Neurotics&lt;/font&gt;" style="text;html=1;strokeColor=none;fillColor=none;align=center;verticalAlign=middle;whiteSpace=wrap;rounded=0;strokeWidth=2;fontFamily=wendy one;fontSource=https%3A%2F%2Ffonts.googleapis.com%2Fcss%3Ffamily%3Dwendy%2Bone;" vertex="1" parent="1">
          <mxGeometry x="540" y="72.5" width="180" height="55" as="geometry" />
        </mxCell>
        <mxCell id="ZHIOyNTAwJOBdiGEuepb-23" value="" style="shape=image;verticalLabelPosition=bottom;labelBackgroundColor=default;verticalAlign=top;aspect=fixed;imageAspect=0;image=data:image/svg+xml,PHN2ZyB2aWV3Qm94PSIwIDAgMzg0IDUxMiIgeG1sbnM9Imh0dHA6Ly93d3cudzMub3JnLzIwMDAvc3ZnIj48cGF0aCBkPSJNMzQyLjYgMTUwLjZjMTIuNS0xMi41IDEyLjUtMzIuOCAwLTQ1LjNzLTMyLjgtMTIuNS00NS4zIDBMMTkyIDIxMC43IDg2LjYgMTA1LjRjLTEyLjUtMTIuNS0zMi44LTEyLjUtNDUuMyAwcy0xMi41IDMyLjggMCA0NS4zTDE0Ni43IDI1NiA0MS40IDM2MS40Yy0xMi41IDEyLjUtMTIuNSAzMi44IDAgNDUuM3MzMi44IDEyLjUgNDUuMyAwTDE5MiAzMDEuMyAyOTcuNCA0MDYuNmMxMi41IDEyLjUgMzIuOCAxMi41IDQ1LjMgMHMxMi41LTMyLjggMC00NS4zTDIzNy4zIDI1NiAzNDIuNiAxNTAuNnoiLz48L3N2Zz4=;" vertex="1" parent="1">
          <mxGeometry x="1060" y="77.34" width="34" height="45.33" as="geometry" />
        </mxCell>
        <mxCell id="ZHIOyNTAwJOBdiGEuepb-24" value="" style="rounded=0;whiteSpace=wrap;html=1;" vertex="1" parent="1">
          <mxGeometry x="100" y="630" width="1030" height="100" as="geometry" />
        </mxCell>
        <mxCell id="ZHIOyNTAwJOBdiGEuepb-25" value="" style="rounded=0;whiteSpace=wrap;html=1;" vertex="1" parent="1">
          <mxGeometry x="180" y="650" width="630" height="50" as="geometry" />
        </mxCell>
        <mxCell id="ZHIOyNTAwJOBdiGEuepb-26" value="" style="rounded=1;fillColor=#d5e8d4;strokeColor=#82b366;html=1;whiteSpace=wrap;align=center;verticalAlign=middle;fontStyle=0;fontSize=12;sketch=0;labelBackgroundColor=none;" vertex="1" parent="1">
          <mxGeometry x="860" y="650" width="106" height="50" as="geometry" />
        </mxCell>
        <mxCell id="ZHIOyNTAwJOBdiGEuepb-31" value="" style="shape=image;verticalLabelPosition=bottom;labelBackgroundColor=default;verticalAlign=top;aspect=fixed;imageAspect=0;image=data:image/svg+xml,PHN2ZyB3aWR0aD0iMjQiIHZpZXdCb3g9IjAgLTk2MCA5NjAgOTYwIiBoZWlnaHQ9IjI0IiB4bWxucz0iaHR0cDovL3d3dy53My5vcmcvMjAwMC9zdmciPjxwYXRoIGQ9Ik0xMjAtMTYwdi02NDBsNzYwIDMyMC03NjAgMzIwWm04MC0xMjAgNDc0LTIwMC00NzQtMjAwdjE0MGwyNDAgNjAtMjQwIDYwdjE0MFptMCAwdi00MDAgNDAwWiIvPjwvc3ZnPg==;" vertex="1" parent="1">
          <mxGeometry x="893" y="655" width="40" height="40" as="geometry" />
        </mxCell>
        <mxCell id="ZHIOyNTAwJOBdiGEuepb-32" value="" style="rounded=1;whiteSpace=wrap;html=1;" vertex="1" parent="1">
          <mxGeometry x="803" y="560" width="220" height="40" as="geometry" />
        </mxCell>
        <mxCell id="ZHIOyNTAwJOBdiGEuepb-33" value="" style="ellipse;whiteSpace=wrap;html=1;aspect=fixed;" vertex="1" parent="1">
          <mxGeometry x="130" y="470" width="50" height="50" as="geometry" />
        </mxCell>
        <mxCell id="ZHIOyNTAwJOBdiGEuepb-35" value="" style="ellipse;whiteSpace=wrap;html=1;aspect=fixed;" vertex="1" parent="1">
          <mxGeometry x="1030" y="555" width="50" height="50" as="geometry" />
        </mxCell>
        <mxCell id="ZHIOyNTAwJOBdiGEuepb-36" value="" style="rounded=1;whiteSpace=wrap;html=1;" vertex="1" parent="1">
          <mxGeometry x="205" y="475" width="220" height="40" as="geometry" />
        </mxCell>
      </root>
    </mxGraphModel>
  </diagram>
</mxfile>
